<!DOCTYPE svg PUBLIC "-//W3C//DTD SVG 1.1//EN" "http://www.w3.org/Graphics/SVG/1.1/DTD/svg11.dtd">
<!-- Uploaded to: SVG Repo, www.svgrepo.com, Transformed by: SVG Repo Mixer Tools -->
<svg fill="#f4f2fe" height="800px" width="800px" version="1.1" id="Layer_1" xmlns="http://www.w3.org/2000/svg" xmlns:xlink="http://www.w3.org/1999/xlink" viewBox="0 0 512 512" xml:space="preserve">
<g id="SVGRepo_bgCarrier" stroke-width="0"/>
<g id="SVGRepo_tracerCarrier" stroke-linecap="round" stroke-linejoin="round"/>
<g id="SVGRepo_iconCarrier"> <g transform="translate(0 -1)"> <g> <g> <path d="M494.933,180.2h-35.174c-15.94-20.71-40.892-34.133-68.984-34.133H121.225c-28.092,0-53.043,13.423-68.984,34.133H17.067 C7.654,180.2,0,187.854,0,197.267V282.6c0,9.412,7.654,17.067,17.067,17.067h18.79c7.927,38.903,42.402,68.267,83.61,68.267 c49.408,0,103.287-31.369,132.727-76.8h7.612c29.44,45.431,83.32,76.8,132.727,76.8c41.207,0,75.682-29.363,83.61-68.267h18.79 c9.412,0,17.067-7.654,17.067-17.067v-85.333C512,187.854,504.346,180.2,494.933,180.2z M41.498,198.24 c-0.717,1.613-1.323,3.277-1.937,4.941c-0.41,1.118-0.87,2.227-1.237,3.362c-0.563,1.766-1.007,3.584-1.468,5.393 c-0.273,1.075-0.597,2.142-0.828,3.226c-0.427,2.031-0.708,4.096-0.998,6.17c-0.119,0.913-0.316,1.809-0.41,2.722 c-0.316,2.995-0.486,6.033-0.486,9.105v47.676v1.766H17.067v-85.333h24.806C41.728,197.582,41.634,197.924,41.498,198.24z M452.267,282.6c0,32.93-26.803,59.733-59.733,59.733c-41.711,0-89.395-28.834-113.391-68.557l-4.983-8.243h-36.318l-4.992,8.252 c-23.987,39.714-71.671,68.548-113.382,68.548c-32.93,0-59.733-26.803-59.733-59.733v-49.442 c0-33.911,27.58-61.491,61.491-61.491h269.551c33.911,0,61.491,27.58,61.491,61.491V282.6z M494.933,282.6h-17.067v-1.766 v-47.676c0-3.072-0.171-6.11-0.486-9.105c-0.094-0.913-0.29-1.809-0.41-2.722c-0.29-2.074-0.572-4.139-0.998-6.17 c-0.23-1.084-0.555-2.15-0.828-3.226c-0.461-1.809-0.905-3.627-1.468-5.393c-0.367-1.135-0.828-2.244-1.237-3.362 c-0.614-1.664-1.22-3.328-1.937-4.941c-0.136-0.316-0.23-0.657-0.375-0.973h24.806V282.6z"/> <path d="M390.775,188.734H121.225c-24.499,0-44.425,19.925-44.425,44.425v49.442c0,23.526,19.14,42.667,42.667,42.667 c36.122,0,77.67-25.37,98.773-60.305l7.484-12.382c1.544-2.551,4.318-4.113,7.305-4.113h45.943c2.987,0,5.76,1.562,7.305,4.113 l7.475,12.373c21.111,34.944,62.66,60.314,98.782,60.314c23.526,0,42.667-19.14,42.667-42.667v-49.442 C435.2,208.66,415.275,188.734,390.775,188.734z M93.867,248.468c-2.185,0-4.369-0.836-6.033-2.5 c-3.337-3.337-3.337-8.73,0-12.066l34.133-34.133c3.337-3.337,8.73-3.337,12.066,0c3.336,3.336,3.336,8.73,0,12.066L99.9,245.967 C98.236,247.631,96.051,248.468,93.867,248.468z M176.7,211.834l-59.733,59.733c-1.664,1.664-3.849,2.5-6.033,2.5 c-2.185,0-4.369-0.836-6.033-2.5c-3.337-3.337-3.337-8.73,0-12.066l59.733-59.733c3.337-3.337,8.73-3.337,12.066,0 C180.036,203.104,180.036,208.497,176.7,211.834z"/> </g> </g> </g> </g>
</svg>